<svg width="640" height="640" viewBox="0 0 640 640" fill="none" xmlns="http://www.w3.org/2000/svg">
<g clip-path="url(#clip0_1043_14971)">
<path d="M576 63.9978H63.9993V575.998H576V63.9978Z" fill="#EEEEEE" fill-opacity="0.05"/>
<path fill-rule="evenodd" clip-rule="evenodd" d="M511.999 255.998C547.321 255.998 575.999 227.321 575.999 191.998C575.999 156.675 547.321 127.998 511.999 127.998C476.677 127.998 447.999 157.595 447.999 192.918L383.999 192.638C383.999 121.993 441.356 63.9978 511.999 63.9978C582.642 63.9978 639.999 121.353 639.999 191.998C639.999 262.643 582.642 319.998 511.999 319.998L511.583 319.999C476.453 320.222 447.999 348.813 447.999 383.998C447.999 454.643 390.642 511.998 319.999 511.998L319.583 511.997C249.125 511.768 191.999 454.045 191.999 383.542L255.999 383.389C256.223 418.521 284.812 447.998 319.999 447.998L320.415 447.997C355.545 447.774 383.999 419.182 383.999 383.998V383.584C384.229 313.124 441.497 255.998 511.999 255.998Z" fill="#26E2A6"/>
<path fill-rule="evenodd" clip-rule="evenodd" d="M575.999 81.1447C614.245 103.287 639.999 144.658 639.999 191.998C639.999 239.337 614.245 280.709 575.999 302.851V81.1447Z" fill="#B7F2D9"/>
<path fill-rule="evenodd" clip-rule="evenodd" d="M191.999 511.998C156.677 511.998 127.999 540.675 127.999 575.998H63.9987C63.9987 505.353 121.356 447.998 191.999 447.998C227.32 447.998 255.999 419.321 255.999 383.998C255.999 348.675 227.32 319.998 191.999 319.998C156.677 319.998 127.999 348.675 127.999 383.998C127.999 454.643 70.6419 511.998 -0.00135803 511.998C-70.6446 511.998 -128.001 454.643 -128.001 383.998H-64.0014C-64.0014 419.321 -35.323 447.998 -0.00135803 447.998C35.3203 447.998 63.9987 419.321 63.9987 383.998C63.9987 313.353 121.356 255.998 191.999 255.998C262.642 255.998 319.999 313.353 319.999 383.998C319.999 454.643 262.642 511.998 191.999 511.998Z" fill="#0035DD"/>
<path fill-rule="evenodd" clip-rule="evenodd" d="M319.583 319.999C284.453 320.222 255.999 348.813 255.999 383.998H191.999C191.999 313.353 249.356 255.998 319.999 255.998L320.415 255.997C355.545 255.774 383.999 227.182 383.999 191.998H447.999C447.999 262.643 390.642 319.998 319.999 319.998L319.583 319.999Z" fill="#26E2A6"/>
<path fill-rule="evenodd" clip-rule="evenodd" d="M63.9985 383.998V494.851C45.1639 505.756 23.304 511.998 -0.00159454 511.998V447.998L0.411846 447.996C35.544 447.774 63.9985 419.182 63.9985 383.998Z" fill="#6A7BF1"/>
</g>
<defs>
<clipPath id="clip0_1043_14971">
<rect width="640" height="640" fill="white"/>
</clipPath>
</defs>
</svg>
