<svg xmlns="http://www.w3.org/2000/svg" width="155" height="26" fill="none"><path fill-rule="evenodd" clip-rule="evenodd" d="M10 26c1.406 0 2.721-.195 3.944-.584 1.222-.39 2.286-.94 3.191-1.65a7.756 7.756 0 0 0 2.137-2.582c.519-1.01.778-2.135.778-3.377 0-1.173-.21-2.172-.631-2.996a6.392 6.392 0 0 0-1.756-2.124c-.75-.593-1.64-1.106-2.673-1.54a42.075 42.075 0 0 0-3.382-1.245 44.167 44.167 0 0 1-1.67-.567 6.785 6.785 0 0 1-1.202-.558c-.323-.198-.565-.412-.726-.644a1.398 1.398 0 0 1-.242-.82c0-.316.075-.584.224-.805.15-.22.352-.397.606-.533.254-.135.548-.234.882-.296a5.877 5.877 0 0 1 1.073-.093c.369 0 .732.054 1.09.16a6.18 6.18 0 0 1 1.02.407c.323.164.626.347.909.55.282.203.539.4.77.593l.155.135c.162.135.309.248.441.339.133.09.28.135.441.135.197 0 .393-.096.589-.288l2.646-2.759a2.58 2.58 0 0 0 .338-.423.771.771 0 0 0 .112-.406c0-.147-.078-.322-.233-.525a4.325 4.325 0 0 0-.632-.643c-.265-.226-.574-.46-.925-.703a16.194 16.194 0 0 0-1.116-.702A11.645 11.645 0 0 0 13.312.347 12.883 12.883 0 0 0 10.293 0C8.898 0 7.635.166 6.505.5c-1.13.332-2.096.803-2.898 1.413a6.315 6.315 0 0 0-1.851 2.2c-.433.858-.649 1.811-.649 2.861 0 .993.173 1.893.52 2.7.345.807.864 1.546 1.556 2.217.692.672 1.557 1.281 2.595 1.828 1.038.548 2.25 1.058 3.633 1.532.311.102.68.229 1.107.381.427.152.836.336 1.228.55.393.215.724.46.995.737.271.276.407.59.407.94 0 .315-.05.614-.147.896-.098.282-.263.53-.493.745-.231.214-.545.387-.943.516-.398.13-.891.195-1.48.195a5.17 5.17 0 0 1-1.816-.322 8.865 8.865 0 0 1-1.747-.897 10.12 10.12 0 0 1-1.047-.787 28.227 28.227 0 0 0-.752-.635 3.204 3.204 0 0 0-.415-.304.652.652 0 0 0-.33-.102c-.149 0-.345.085-.587.254L.398 20.211c-.265.237-.398.451-.398.643 0 .17.133.395.398.677.011.012.023.02.034.026.012.005.024.02.035.042.012.011.023.02.035.025.011.006.023.02.034.043l.052.05c.185.192.436.446.753.762s.706.638 1.167.965c1.108.779 2.301 1.4 3.582 1.862C7.37 25.769 8.672 26 10 26Zm21.381-.322c.542 0 .813-.248.813-.744V1.286a.671.671 0 0 0-.242-.541.885.885 0 0 0-.588-.203h-3.91c-.45 0-.819.017-1.107.05a2.097 2.097 0 0 0-.883.339l-2.352 1.134c-.508.27-.761.62-.761 1.05v3.639c0 .214.06.4.181.558a.606.606 0 0 0 .51.237c.024-.045.064-.064.122-.059a.37.37 0 0 0 .173-.025l2.37-1.151v18.653c0 .17.055.33.164.483.11.152.309.228.597.228h4.913Zm18.252-.262c-1.223.39-2.538.584-3.945.584-1.326 0-2.63-.231-3.91-.694a15.144 15.144 0 0 1-3.58-1.862 9.192 9.192 0 0 1-1.168-.965c-.317-.316-.568-.57-.753-.762l-.052-.05c-.011-.023-.023-.037-.034-.043a.139.139 0 0 1-.035-.025c-.011-.023-.023-.037-.034-.042a.134.134 0 0 1-.035-.026c-.265-.282-.398-.508-.398-.677 0-.192.133-.406.398-.643l2.993-2.793c.242-.17.438-.254.588-.254.104 0 .214.034.329.102.115.067.254.169.415.304.196.158.447.37.753.635.305.265.654.528 1.046.787.588.384 1.17.683 1.748.897a5.17 5.17 0 0 0 1.816.322c.588 0 1.081-.065 1.48-.195.397-.13.711-.302.942-.516.23-.214.395-.463.493-.745.098-.282.147-.581.147-.897 0-.35-.136-.663-.407-.94a4.206 4.206 0 0 0-.994-.736 8.534 8.534 0 0 0-1.229-.55c-.426-.152-.795-.28-1.107-.38-1.384-.475-2.595-.985-3.633-1.533-1.038-.547-1.903-1.156-2.595-1.828-.692-.671-1.21-1.41-1.557-2.217-.346-.807-.519-1.707-.519-2.7 0-1.05.217-2.003.65-2.86a6.315 6.315 0 0 1 1.85-2.201c.802-.61 1.768-1.08 2.898-1.414C43.324.166 44.587 0 45.982 0c1.05 0 2.056.116 3.02.347.962.231 1.911.6 2.845 1.109.392.225.764.46 1.116.702.352.243.66.477.925.703.266.225.476.44.632.643.156.203.233.378.233.525a.771.771 0 0 1-.112.406 2.58 2.58 0 0 1-.337.423l-2.647 2.76c-.196.191-.392.287-.588.287a.767.767 0 0 1-.442-.135 5.617 5.617 0 0 1-.44-.339l-.156-.135c-.231-.192-.488-.39-.77-.593a6.877 6.877 0 0 0-.908-.55 6.18 6.18 0 0 0-1.021-.406 3.775 3.775 0 0 0-1.09-.161c-.38 0-.738.031-1.072.093-.335.062-.63.16-.883.296a1.666 1.666 0 0 0-.605.533c-.15.22-.225.489-.225.804 0 .316.08.59.242.821.161.232.404.446.727.644.322.197.723.383 1.202.558.478.175 1.035.364 1.67.567 1.222.395 2.35.81 3.381 1.245 1.033.434 1.924.947 2.673 1.54.75.592 1.335 1.3 1.756 2.124.421.824.632 1.823.632 2.996 0 1.242-.26 2.367-.779 3.377a7.756 7.756 0 0 1-2.136 2.582c-.906.71-1.97 1.26-3.192 1.65Zm28.51.262c.427 0 .663-.158.71-.474a.417.417 0 0 0 .138-.304v-4.266c0-.519-.26-.779-.779-.779H66.587V15.54h8.667c.242 0 .426-.073.553-.22a.693.693 0 0 0 .19-.457v-3.656c0-.237-.071-.406-.216-.508a.924.924 0 0 0-.544-.152h-8.65V6.365h11.21c.265 0 .467-.088.605-.263a.875.875 0 0 0 .208-.55V1.354c0-.248-.07-.446-.208-.592-.138-.147-.334-.22-.588-.22H60.636c-.243 0-.43.07-.563.211-.132.141-.199.33-.199.567v23.63c0 .249.07.432.208.55.138.12.323.178.553.178h17.508Zm17.61-.169a.72.72 0 0 1-.466.17h-4.273c-.358 0-.594-.12-.71-.356a5.482 5.482 0 0 1-.337-.626 17.577 17.577 0 0 1-.285-.66L80.807 1.302a.423.423 0 0 0-.026-.152.376.376 0 0 1-.026-.135c0-.316.213-.474.64-.474h5.57c.439 0 .739.214.9.643l5.277 15.404c.473-1.287.925-2.57 1.358-3.851.432-1.281.859-2.565 1.28-3.851.42-1.287.847-2.57 1.28-3.851.433-1.281.885-2.565 1.358-3.851.161-.429.479-.643.951-.643h5.45c.265 0 .453.048.562.144a.48.48 0 0 1 .164.38c0 .09-.005.153-.017.187v.05l-8.927 22.733c-.057.159-.126.333-.207.525-.08.192-.173.37-.277.533a1.711 1.711 0 0 1-.363.415Zm31.175.17c.427 0 .663-.159.709-.475a.418.418 0 0 0 .139-.304v-4.266c0-.519-.26-.779-.779-.779h-11.625V15.54h8.667c.242 0 .426-.073.553-.22a.694.694 0 0 0 .191-.457v-3.656c0-.237-.072-.406-.217-.508a.922.922 0 0 0-.545-.152h-8.649V6.365h11.21c.265 0 .467-.088.605-.263a.872.872 0 0 0 .208-.55V1.354c0-.248-.069-.446-.208-.592-.138-.147-.334-.22-.588-.22h-17.178c-.243 0-.43.07-.563.211-.132.141-.199.33-.199.567v23.63c0 .249.07.432.208.55.138.12.323.178.554.178h17.507Zm11.453-.187c-.115.124-.323.186-.623.186h-4.913c-.265 0-.458-.07-.579-.211a.766.766 0 0 1-.182-.516V1.286c0-.203.063-.378.19-.524.127-.147.317-.22.571-.22h5.657c.162 0 .329.04.502.118.173.08.323.215.45.406 1.464 2.314 2.918 4.593 4.359 6.839 1.442 2.246 2.901 4.525 4.377 6.838V1.185a.82.82 0 0 1 .277-.474c.138-.113.3-.17.484-.17h4.931c.242 0 .444.066.605.195.162.13.242.313.242.55v23.732c0 .226-.069.392-.207.5-.139.107-.329.16-.571.16h-5.519a.586.586 0 0 1-.398-.152 2.73 2.73 0 0 1-.363-.406l-4.55-7.364a2450.11 2450.11 0 0 0-4.567-7.363v14.54c0 .249-.058.435-.173.56Z" fill="currentColor"></path></svg>